<svg width="284" height="41" viewBox="0 0 284 41" fill="none" xmlns="http://www.w3.org/2000/svg">
<path d="M181.034 1.06587C160.838 1.69082 140.654 2.73902 120.504 4.21045C102.218 4.5345 83.9294 4.85855 65.6438 5.1826C45.5794 5.53971 25.5149 5.89352 5.45371 6.25063C3.51273 6.2837 0.507031 7.70884 0.209436 9.86144C-0.117918 12.2356 2.81835 12.6324 4.47165 12.6059C17.5096 12.3745 30.5475 12.143 43.5855 11.9115C38.1593 12.6026 32.7398 13.3202 27.3203 14.0708C25.4421 14.332 22.82 15.2115 22.2215 17.2649C21.6858 19.0968 23.359 20.3963 25.1346 20.4294C55.2446 20.9452 85.3578 21.4643 115.468 21.9801C121.876 22.0893 128.284 22.2017 134.692 22.3108C125.474 23.3193 116.268 24.4799 107.089 25.7927C92.6952 27.856 78.361 30.3029 64.0897 33.0903C62.5489 33.3912 60.3632 34.7403 60.1284 36.4697C59.9003 38.123 61.7222 39.2043 63.1837 39.2175C97.4269 39.5151 131.67 39.816 165.913 40.1136C175.569 40.1962 185.221 40.2822 194.876 40.3649C197.088 40.3847 199.925 39.7532 201.039 37.5807C202.035 35.6364 200.17 34.0195 198.268 34.003C165.305 33.7153 132.341 33.4276 99.3778 33.1399C100.297 33.0011 101.213 32.8589 102.132 32.7233C114.588 30.8782 127.087 29.3142 139.613 28.0345C164.677 25.4752 189.853 24.0501 215.046 23.769C216.161 23.7558 217.288 23.7492 218.412 23.7426C231.182 23.9608 243.949 24.1823 256.719 24.4006C258.928 24.437 261.775 23.7756 262.883 21.6164C263.901 19.6325 261.997 18.1147 260.112 18.0387C247.081 17.5162 234.036 17.2914 220.995 17.3674C203.923 17.0731 186.851 16.7822 169.779 16.4879C139.669 15.972 109.556 15.4529 79.4456 14.9371C77.0186 14.8941 74.5882 14.8544 72.1612 14.8114C87.9271 13.135 103.719 11.7164 119.532 10.5624C152.495 9.97717 185.462 9.39521 218.426 8.80994C238.49 8.45283 258.555 8.09902 278.616 7.74191C280.457 7.70884 283.162 6.44572 283.714 4.54773C284.257 2.69272 282.57 1.44944 280.801 1.38331C247.56 0.146636 214.279 0.0375185 181.034 1.06587Z" fill="#B5ACD7"/>
</svg>
